<?xml version="1.0" standalone="no"?>
<!DOCTYPE svg PUBLIC "-//W3C//DTD SVG 20010904//EN"
 "http://www.w3.org/TR/2001/REC-SVG-20010904/DTD/svg10.dtd">
<svg version="1.0" xmlns="http://www.w3.org/2000/svg"
 width="300.000000pt" height="300.000000pt" viewBox="0 60 300.000000 240.000000"
 preserveAspectRatio="xMidYMid meet">
<metadata>
Created by potrace 1.10, written by Peter Selinger 2001-2011
</metadata>
<g transform="translate(0.000000,300.000000) scale(0.100000,-0.100000)"
fill="#000000" stroke="none">
<path d="M1541 2644 c-11 -14 -21 -29 -23 -33 -2 -4 -93 -14 -203 -22 l-200
-14 -23 27 c-33 39 -92 39 -122 1 -14 -18 -20 -36 -16 -53 4 -22 -2 -29 -42
-52 -26 -15 -96 -60 -156 -101 -105 -72 -110 -74 -137 -60 -72 36 -135 -40
-98 -120 9 -20 5 -33 -28 -88 -22 -35 -56 -94 -77 -131 -33 -60 -40 -68 -67
-68 -39 0 -79 -39 -79 -77 0 -33 25 -73 45 -73 8 0 16 -4 20 -9 3 -6 -6 -88
-20 -183 -14 -95 -25 -179 -25 -185 0 -7 -8 -13 -18 -13 -10 0 -29 -11 -41
-24 -40 -43 -14 -116 42 -120 22 -1 28 -16 81 -189 53 -173 56 -190 42 -206
-50 -55 23 -160 84 -121 12 7 48 -24 167 -142 143 -143 151 -153 137 -172 -20
-30 -17 -54 11 -81 30 -30 64 -32 93 -4 l22 20 205 -83 c184 -74 205 -85 205
-106 0 -31 43 -72 75 -72 29 0 65 32 65 58 0 15 25 21 197 44 195 27 197 27
210 8 18 -26 74 -27 96 -2 10 10 17 32 17 49 0 27 10 37 97 94 53 35 115 78
137 96 26 21 44 29 50 23 19 -19 72 -11 95 14 22 23 25 50 10 92 -2 7 60 88
138 182 137 163 144 170 178 169 46 -1 78 30 78 74 0 63 -81 93 -126 46 -21
-21 -28 -22 -130 -17 -103 5 -109 6 -124 31 -15 25 -13 33 31 161 45 127 49
135 71 130 36 -6 79 40 71 76 -7 28 -49 72 -69 72 -8 0 -19 42 -31 118 -10 64
-24 145 -31 180 -13 62 -12 63 10 72 25 10 35 29 35 71 0 42 -33 71 -77 67
-36 -3 -37 -3 -133 137 -95 137 -96 140 -81 166 20 35 4 72 -38 94 -27 14 -34
14 -69 0 l-38 -16 -182 98 c-153 83 -181 102 -182 121 0 13 -11 34 -25 47 -33
33 -77 33 -104 -1z m85 -69 c-8 -21 -45 -16 -60 8 -9 15 -7 21 9 33 17 13 21
12 38 -5 12 -12 17 -26 13 -36z m-561 -5 c17 -18 17 -21 1 -45 -19 -28 -20
-29 -47 -15 -19 10 -27 59 -12 73 12 13 40 7 58 -13z m468 -14 c16 -23 14 -28
-32 -112 -42 -79 -51 -89 -82 -96 -31 -6 -45 0 -171 84 -76 50 -138 96 -138
103 0 8 60 16 203 27 111 8 203 16 203 17 1 0 9 -10 17 -23z m260 -78 c72 -39
154 -83 181 -98 40 -21 49 -31 51 -57 2 -29 0 -31 -96 -70 -82 -33 -101 -38
-110 -27 -6 8 -17 14 -25 14 -13 0 -55 82 -101 200 -14 36 -30 69 -34 75 -10
10 -12 35 -4 35 3 0 65 -32 138 -72z m-110 -90 c32 -73 59 -140 60 -148 3 -24
-32 -22 -138 8 -95 27 -101 31 -113 63 -12 32 -10 39 33 122 41 77 49 87 73
87 25 0 31 -10 85 -132z m-685 92 l22 -18 -23 -118 c-20 -99 -28 -120 -48
-133 -13 -9 -25 -19 -27 -23 -2 -3 -57 12 -122 34 -92 30 -121 44 -126 60 -4
13 -1 24 7 29 8 4 75 48 149 98 74 49 137 90 140 90 3 0 15 -8 28 -19z m238
-76 c71 -48 129 -91 129 -97 0 -5 -7 -14 -15 -18 -32 -17 -322 -90 -337 -85
-18 7 -15 30 18 174 16 70 25 92 42 100 12 6 25 11 28 11 3 1 63 -38 135 -85z
m892 -56 c30 -30 -11 -85 -44 -57 -14 12 -19 51 -7 62 10 11 38 8 51 -5z
m-678 -53 c15 -18 5 -35 -20 -35 -22 0 -34 15 -26 35 7 19 30 19 46 0z m-818
-20 c8 -19 8 -28 -2 -40 -25 -30 -80 -12 -80 25 0 44 63 55 82 15z m1433 -19
c19 -13 19 -17 -3 -157 -13 -79 -25 -145 -28 -148 -8 -9 -193 193 -194 211 0
21 6 25 110 70 101 43 92 41 115 24z m-649 -36 c13 0 37 -30 81 -100 73 -117
70 -125 -34 -121 -48 2 -73 8 -94 23 -20 15 -37 19 -61 16 -48 -8 -262 88
-266 120 -2 16 2 22 15 22 10 1 81 18 158 39 138 38 140 39 161 20 11 -10 29
-19 40 -19z m187 -1 c96 -28 107 -34 107 -54 0 -14 11 -32 27 -43 27 -20 28
-24 33 -134 3 -68 1 -116 -4 -120 -17 -12 -101 74 -112 112 -7 27 -16 37 -41
45 -25 9 -44 30 -88 99 -54 86 -62 106 -48 119 9 10 7 10 126 -24z m587 -37
c25 -36 69 -100 98 -140 70 -99 66 -106 -70 -119 -98 -10 -104 -9 -130 11 -15
11 -25 27 -23 34 5 14 30 163 40 235 9 66 30 61 85 -21z m-1400 12 c61 -19
110 -40 110 -47 0 -7 3 -21 6 -33 5 -18 -4 -24 -68 -49 -40 -15 -149 -62 -241
-103 -221 -99 -223 -97 -121 83 l74 130 35 -3 c29 -3 41 2 63 27 15 17 28 30
30 31 1 0 52 -16 112 -36z m1005 -19 c0 -11 -7 -21 -16 -23 -18 -3 -33 23 -23
39 10 17 39 5 39 -16z m-800 -26 c0 -17 -6 -25 -22 -27 -19 -3 -23 1 -23 21 0
25 14 38 35 33 6 -2 10 -14 10 -27z m989 -201 c5 -3 10 -30 10 -60 1 -47 -4
-62 -52 -138 -29 -47 -57 -89 -61 -93 -13 -13 -50 123 -44 159 4 24 0 35 -16
46 -18 13 -21 29 -27 135 -6 113 -6 121 12 125 13 2 41 -22 94 -82 41 -47 79
-88 84 -92z m-814 104 c72 -31 85 -41 87 -62 2 -20 -9 -33 -56 -67 -39 -27
-66 -40 -79 -36 -22 5 -82 -22 -82 -37 0 -6 -43 -10 -104 -10 -80 0 -105 3
-109 14 -3 8 19 59 49 113 30 54 54 101 54 105 0 4 13 5 28 2 19 -4 35 0 52
14 27 22 24 23 160 -36z m-325 -86 c-42 -78 -50 -86 -76 -86 -18 0 -33 -7 -41
-20 -12 -18 -24 -20 -155 -20 -79 0 -143 3 -143 8 0 4 44 26 98 49 53 23 156
68 227 101 72 32 131 58 133 57 2 -2 -18 -42 -43 -89z m494 -2 c-15 -18 -28
-18 -36 2 -8 20 17 36 34 22 10 -8 10 -14 2 -24z m211 -24 c27 -25 30 -34 30
-87 0 -45 -4 -61 -18 -70 -27 -16 -72 -4 -84 23 -6 13 -19 24 -27 24 -9 0 -33
22 -53 49 -32 42 -35 51 -23 61 8 7 15 18 15 24 0 8 20 11 65 8 55 -4 70 -9
95 -32z m880 -14 c0 -20 -27 -39 -45 -32 -25 9 -30 37 -10 52 20 15 55 2 55
-20z m-1146 -1 c3 -8 16 -15 29 -15 32 0 94 -75 89 -108 -4 -29 -33 -40 -97
-38 -61 2 -137 39 -129 61 4 8 1 22 -6 29 -9 12 -1 21 42 50 60 41 64 42 72
21z m450 -96 c-3 -5 -1 -17 5 -27 14 -26 -41 -112 -72 -112 -26 0 -48 30 -41
57 3 11 -2 27 -10 36 -23 23 -22 125 2 143 15 11 23 7 69 -38 29 -28 50 -55
47 -59z m332 70 c10 -17 -13 -36 -27 -22 -12 12 -4 33 11 33 5 0 12 -5 16 -11z
m275 -12 c16 -21 13 -26 -82 -147 -54 -69 -107 -126 -117 -128 -15 -2 -21 13
-39 109 -21 106 -21 112 -5 135 20 29 30 31 217 52 6 1 17 -9 26 -21z m-1951
-12 c16 -19 9 -45 -17 -62 -19 -13 -24 -12 -42 6 -25 25 -26 35 -5 55 19 20
48 20 64 1z m2005 -72 c3 -27 18 -108 31 -182 33 -179 34 -177 -114 -119 -150
59 -150 58 -29 222 51 68 95 125 98 125 4 1 10 -20 14 -46z m-1610 16 c0 -7
-8 -15 -17 -17 -18 -3 -25 18 -11 32 10 10 28 1 28 -15z m345 6 c0 -9 -7 -18
-16 -22 -18 -7 -39 11 -30 26 11 17 46 13 46 -4z m925 -17 c46 -199 46 -200
33 -230 -8 -18 -29 -38 -53 -50 -22 -11 -70 -40 -107 -64 -37 -24 -70 -39 -73
-34 -10 16 24 112 46 133 16 15 19 27 15 52 -5 27 2 46 50 124 57 92 79 110
89 69z m-1005 -10 c0 -34 -71 -138 -95 -138 -28 0 -45 -19 -45 -47 0 -13 -8
-26 -17 -30 -10 -3 -58 -22 -107 -40 -48 -19 -92 -31 -96 -26 -4 4 13 61 38
126 35 90 50 117 64 117 10 0 23 11 30 25 10 22 17 24 87 28 42 1 91 4 109 5
27 2 32 -1 32 -20z m-327 -13 c18 -25 17 -27 -24 -139 -29 -81 -46 -116 -60
-119 -14 -4 -42 26 -124 130 -58 74 -102 139 -99 144 3 5 69 9 147 9 139 -1
142 -1 160 -25z m527 -45 c5 0 10 -7 10 -16 0 -23 -39 -74 -56 -74 -7 0 -19
-8 -25 -17 -9 -15 -24 -18 -82 -17 -93 1 -103 18 -57 92 26 43 35 51 54 46 14
-3 31 2 46 14 24 19 24 19 62 -4 21 -13 42 -24 48 -24z m-756 -104 c94 -119
102 -132 93 -156 -7 -17 -25 -32 -56 -45 -25 -10 -74 -32 -109 -48 l-63 -30
-21 20 -20 21 22 163 c27 202 28 211 40 207 6 -2 57 -61 114 -132z m1337 63
c13 -49 14 -61 2 -70 -7 -6 -13 -19 -13 -29 0 -14 -11 -20 -50 -25 -27 -4 -54
-4 -60 0 -18 11 -1 102 26 143 13 19 24 38 24 42 0 3 13 5 28 2 25 -3 30 -10
43 -63z m-383 -12 c6 -33 9 -63 7 -65 -7 -7 -114 81 -115 94 0 14 60 42 81 37
10 -3 19 -25 27 -66z m60 67 c41 -8 46 -26 25 -85 -23 -64 -43 -61 -59 11 -21
87 -22 85 34 74z m112 -66 c10 -12 15 -28 13 -36 -6 -14 -103 -67 -103 -55 0
23 46 113 58 113 7 0 22 -10 32 -22z m-248 -39 c42 -36 47 -44 35 -56 -12 -12
-23 -12 -78 3 -85 23 -97 34 -73 68 27 37 59 32 116 -15z m308 -56 c0 -29 -31
-47 -74 -44 -58 4 -64 22 -14 47 44 22 88 21 88 -3z m-495 -12 c7 -12 -24 -91
-36 -91 -5 0 -13 -9 -17 -21 -4 -11 -40 -38 -80 -59 -85 -47 -88 -45 -79 61 9
101 27 119 129 119 42 0 79 -4 83 -9z m134 -5 c30 -7 56 -16 58 -22 3 -10
-175 -76 -188 -69 -12 8 11 68 35 87 25 21 26 21 95 4z m182 4 c25 -14 25 -54
-1 -80 -24 -24 -38 -25 -68 -4 -28 19 -28 41 0 71 24 25 39 28 69 13z m-559
-114 c-2 -68 -6 -92 -18 -101 -9 -6 -16 -25 -16 -41 0 -21 -15 -46 -57 -93
-31 -35 -66 -75 -78 -90 -15 -18 -25 -23 -32 -16 -6 6 -24 69 -40 140 -28 125
-29 130 -11 142 10 7 20 27 22 44 3 28 10 34 93 69 50 21 101 38 115 37 25 -2
25 -2 22 -91z m901 88 c12 -4 12 -12 -1 -58 -18 -65 -35 -77 -98 -68 -45 7
-49 9 -52 38 -2 23 2 33 22 43 13 8 22 19 19 27 -4 12 10 16 79 22 9 1 23 0
31 -4z m-199 -34 c29 -11 34 -41 11 -60 -12 -10 -20 -10 -38 -1 -44 24 -70 48
-63 60 9 14 56 14 90 1z m-264 -15 c0 -8 -4 -15 -9 -15 -24 0 -89 -54 -95 -79
-3 -14 -17 -39 -31 -56 l-24 -29 -16 38 c-26 62 -10 86 83 124 91 36 92 36 92
17z m718 3 c13 -16 -47 -198 -65 -198 -7 0 -20 -11 -29 -25 -17 -25 -18 -26
-138 -23 -80 2 -121 7 -121 14 0 16 60 64 87 69 23 5 48 30 48 49 0 12 177
124 196 125 6 1 16 -5 22 -11z m205 -33 c77 -29 107 -45 107 -57 0 -13 -38
-29 -160 -69 -87 -29 -163 -50 -167 -46 -13 14 48 170 76 194 14 12 29 21 32
20 3 -1 54 -20 112 -42z m-1633 -9 c0 -30 -16 -42 -35 -26 -11 9 -12 17 -4 31
14 27 39 24 39 -5z m730 3 c0 -12 -21 -91 -27 -98 -1 -2 -9 2 -18 9 -21 18
-19 50 7 77 23 25 38 30 38 12z m188 -20 c23 -17 42 -35 42 -40 0 -11 -36 -30
-43 -23 -3 3 -13 7 -22 8 -25 4 -57 57 -43 73 15 18 19 17 66 -18z m-134 -44
c9 -57 0 -85 -26 -85 -13 0 -18 5 -15 14 3 7 1 18 -5 24 -13 13 11 92 27 92 7
0 16 -20 19 -45z m64 -58 c-27 -10 -34 -2 -42 50 -9 60 13 62 41 4 l22 -46
-21 -8z m977 89 c25 -18 13 -46 -20 -46 -20 0 -25 5 -25 23 0 38 14 46 45 23z
m-1822 -172 c15 -67 27 -127 27 -133 0 -24 -41 -7 -185 77 -107 61 -150 92
-147 103 1 9 49 37 110 65 l107 50 31 -21 c28 -18 33 -30 57 -141z m500 113
c16 -34 16 -39 1 -61 -12 -19 -13 -29 -5 -44 9 -16 4 -35 -22 -91 -42 -93 -57
-92 -115 12 -42 75 -43 79 -27 97 11 12 15 28 12 42 -5 20 2 28 51 55 31 18
64 31 72 30 8 -1 23 -19 33 -40z m579 27 c52 -9 55 -35 9 -72 -45 -36 -88 -43
-124 -19 -35 22 -34 50 1 66 15 8 34 17 42 22 19 10 26 10 72 3z m-421 -31 c8
-9 13 -24 11 -34 -2 -10 1 -27 7 -37 11 -21 -8 -103 -26 -109 -14 -5 -71 70
-74 98 -2 16 7 38 26 62 34 42 37 43 56 20z m1106 -16 c-3 -7 -26 -72 -52
-144 -61 -168 -60 -168 -187 -60 -51 44 -94 87 -96 96 -2 12 31 28 145 67 155
54 199 63 190 41z m-2107 -35 c0 -35 -16 -47 -44 -34 -30 13 -35 46 -9 61 22
12 53 -4 53 -27z m1290 -20 l33 -29 -64 5 c-61 4 -89 14 -89 32 0 5 8 11 18
13 42 11 70 5 102 -21z m-165 -29 c0 -19 7 -31 22 -38 28 -12 49 -84 29 -103
-10 -10 -21 -9 -60 9 -26 11 -56 29 -67 40 -17 17 -18 24 -8 62 15 56 15 57
52 57 29 0 33 -3 32 -27z m-1053 -35 c30 -18 100 -58 155 -88 96 -52 101 -56
96 -82 -3 -16 -1 -34 5 -40 7 -10 -12 -32 -74 -86 -72 -62 -87 -71 -104 -62
-10 6 -25 9 -31 8 -14 -3 -123 348 -115 369 7 17 6 18 68 -19z m603 -54 c31
-58 44 -92 39 -106 -6 -21 -33 -21 -234 -4 -14 2 -26 9 -28 17 -4 20 138 179
159 179 11 0 34 -31 64 -86z m656 45 c10 -10 25 -19 32 -19 8 0 41 -29 75 -64
65 -67 80 -103 40 -93 -13 3 -65 14 -115 23 -73 14 -94 22 -99 37 -3 10 -16
23 -29 29 -21 10 -45 63 -45 103 0 15 7 16 61 10 39 -5 68 -14 80 -26z m-393
-19 c17 -21 32 -46 32 -56 0 -10 6 -25 14 -33 8 -10 17 -53 21 -108 6 -79 5
-94 -8 -99 -22 -8 -178 103 -170 122 3 8 -2 25 -10 38 -15 22 -13 28 24 100
22 42 46 76 52 76 7 0 27 -18 45 -40z m732 16 c0 -8 -3 -16 -7 -18 -5 -1 -28
-25 -53 -53 -68 -76 -78 -76 -150 4 -33 38 -57 71 -53 75 3 3 64 6 135 6 104
0 128 -3 128 -14z m179 -96 c50 -41 90 -83 90 -92 1 -10 -2 -18 -6 -18 -5 0
-80 7 -167 15 -202 19 -211 27 -123 112 49 48 75 63 105 59 6 0 52 -35 101
-76z m-737 -19 c24 -10 52 -30 61 -45 11 -15 27 -26 40 -26 19 0 30 -14 61
-80 30 -64 35 -82 25 -97 -10 -17 -17 -18 -109 -6 -85 11 -102 16 -127 40 -25
25 -28 36 -31 111 -3 69 -1 86 14 103 21 23 13 23 66 0z m-698 -37 c9 -24 7
-31 -10 -38 -23 -9 -43 11 -37 34 6 24 38 26 47 4z m1083 -58 c9 -9 -119 -125
-139 -126 -12 0 -31 25 -58 80 -22 45 -38 85 -36 89 6 8 222 -31 233 -43z
m-717 29 c0 -8 -9 -15 -20 -15 -11 0 -20 7 -20 15 0 8 9 15 20 15 11 0 20 -7
20 -15z m-162 -11 c64 -5 85 -11 92 -24 12 -22 -71 -254 -92 -258 -7 -1 -47
54 -94 132 -63 104 -79 138 -71 151 7 13 18 16 46 11 20 -3 73 -8 119 -12z
m1401 -7 c8 -10 7 -17 -1 -25 -26 -26 -60 -4 -38 23 15 18 24 19 39 2z m-249
-22 c80 -8 151 -15 158 -15 24 0 11 -24 -65 -115 -72 -86 -80 -92 -108 -87
-16 3 -30 5 -30 6 0 1 -31 47 -68 104 -37 57 -65 107 -62 112 8 12 -1 12 175
-5z m610 0 c18 -21 5 -47 -22 -43 -26 3 -37 36 -16 49 18 12 24 11 38 -6z
m-1877 -145 c71 -118 85 -159 48 -145 -9 4 -91 28 -183 53 -125 35 -168 50
-171 63 -7 27 135 151 182 159 20 4 39 4 43 1 3 -3 40 -62 81 -131z m458 7
c-6 -15 -98 -61 -266 -133 -5 -2 -16 0 -23 5 -11 7 -5 31 28 123 39 106 44
115 73 124 29 8 39 4 113 -46 65 -44 80 -59 75 -73z m1241 123 c84 0 88 -1 94
-24 5 -21 -17 -51 -141 -198 -108 -127 -152 -172 -167 -171 -11 2 -27 -1 -37
-6 -14 -8 -29 1 -77 46 -48 45 -58 61 -56 83 2 16 -1 31 -7 34 -6 4 23 47 67
101 64 77 81 93 100 89 27 -5 77 19 86 42 4 11 13 14 29 10 12 -3 61 -6 109
-6z m-565 -109 c84 -130 84 -148 1 -121 -29 9 -92 28 -141 41 -114 31 -117 41
-40 124 85 92 93 90 180 -44z m-602 -27 c0 -10 -8 -20 -17 -22 -18 -3 -26 27
-11 42 12 11 28 0 28 -20z m-875 -35 c14 -26 -3 -49 -36 -49 -17 0 -25 7 -30
24 -3 14 -3 30 1 35 11 19 54 12 65 -10z m1066 5 c52 -5 64 -10 73 -30 6 -13
16 -24 24 -24 18 0 80 -252 64 -262 -17 -10 -327 300 -320 320 5 11 17 13 52
8 25 -3 74 -8 107 -12z m-242 -23 c15 -17 17 -34 10 -151 -6 -120 -9 -132 -27
-139 -14 -5 -31 -1 -52 14 -18 11 -73 45 -123 75 -78 46 -92 58 -92 80 0 23
12 31 128 82 70 31 130 56 133 57 3 1 14 -8 23 -18z m701 -103 c0 -8 -51 -57
-113 -107 -84 -68 -118 -90 -133 -86 -10 4 -19 14 -19 23 0 9 -13 68 -28 130
-38 153 -39 152 152 97 103 -30 141 -45 141 -57z m-1107 -46 c14 -28 13 -36
-18 -111 -27 -68 -36 -81 -55 -81 -16 0 -64 44 -170 155 -80 85 -144 158 -141
163 3 5 87 -14 188 -43 172 -49 182 -53 196 -83z m621 -18 c84 -85 150 -158
147 -162 -4 -3 -70 -5 -148 -3 -138 3 -141 3 -164 29 -26 29 -26 16 -8 220 4
39 10 72 14 72 4 0 75 -70 159 -156z m569 88 c4 -26 -19 -30 -39 -6 -10 13
-10 17 2 25 20 13 34 6 37 -19z m-1111 -18 c3 -8 -2 -23 -11 -32 -16 -16 -18
-16 -32 2 -18 26 -18 34 4 39 30 8 32 7 39 -9z m1075 -45 c15 -8 27 -8 46 0
23 11 29 8 78 -45 49 -52 67 -84 46 -84 -4 0 -102 -16 -216 -35 -115 -20 -211
-33 -214 -30 -3 2 6 13 19 24 14 10 67 55 119 100 52 44 96 81 98 81 2 0 13
-5 24 -11z m-1023 -42 c9 -8 62 -42 119 -76 56 -35 102 -68 102 -75 0 -8 -53
-16 -170 -26 -218 -19 -213 -22 -170 94 32 85 37 90 89 95 8 0 22 -5 30 -12z
m1295 -82 c5 -14 -17 -45 -32 -45 -40 1 -37 60 3 60 12 0 25 -7 29 -15z m-99
-44 c-6 -4 -69 -49 -141 -98 -158 -109 -173 -111 -253 -43 -50 43 -51 46 -36
68 11 14 27 22 48 23 18 0 102 13 187 29 170 30 209 35 195 21z m-895 -37 c0
-14 -21 -19 -33 -7 -9 9 13 34 24 27 5 -3 9 -12 9 -20z m430 -10 c0 -22 -29
-29 -47 -11 -13 13 -14 19 -4 31 16 19 51 5 51 -20z m-89 -26 c15 -29 28 -38
59 -38 15 -1 46 -20 78 -50 83 -75 76 -79 -160 -111 -187 -25 -194 -25 -214
-7 -11 10 -26 18 -32 18 -14 0 -25 26 -49 111 -15 53 -15 57 3 77 17 19 31 20
161 21 138 1 143 0 154 -21z m-401 -3 c7 -8 19 -15 26 -15 8 0 16 -12 20 -27
3 -16 14 -54 24 -85 30 -92 21 -92 -223 5 -114 45 -207 87 -207 93 0 6 67 16
168 26 92 8 170 16 173 17 4 0 12 -6 19 -14z m-405 -25 c0 -18 -6 -26 -23 -28
-13 -2 -25 3 -28 12 -10 26 4 48 28 44 17 -2 23 -10 23 -28z m543 -228 c-4
-23 -44 -28 -52 -6 -3 9 -1 23 5 30 15 18 51 -1 47 -24z"/>
</g>
</svg>
