<?xml version="1.0" encoding="UTF-8"?>
<svg version="1.1" xmlns="http://www.w3.org/2000/svg" width="48" height="48">
<path d="M0 0 C0.89460938 -0.00128906 1.78921875 -0.00257812 2.7109375 -0.00390625 C3.65195312 -0.00003906 4.59296875 0.00382813 5.5625 0.0078125 C6.97402344 0.00201172 6.97402344 0.00201172 8.4140625 -0.00390625 C9.75597656 -0.00197266 9.75597656 -0.00197266 11.125 0 C11.95128906 0.00112793 12.77757813 0.00225586 13.62890625 0.00341797 C15.5625 0.1328125 15.5625 0.1328125 16.5625 1.1328125 C16.66243532 3.1933656 16.69330906 5.2573384 16.6953125 7.3203125 C16.69724609 9.20363281 16.69724609 9.20363281 16.69921875 11.125 C16.69607666 12.11064941 16.69607666 12.11064941 16.69287109 13.11621094 C16.68752234 15.12442585 16.69281691 17.13241709 16.69921875 19.140625 C16.69792969 20.39617188 16.69664063 21.65171875 16.6953125 22.9453125 C16.69418457 24.10675781 16.69305664 25.26820312 16.69189453 26.46484375 C16.5625 29.1328125 16.5625 29.1328125 15.5625 30.1328125 C14.08597336 30.23162047 12.60482764 30.26360495 11.125 30.265625 C9.78308594 30.26755859 9.78308594 30.26755859 8.4140625 30.26953125 C7.47304688 30.26566406 6.53203125 30.26179688 5.5625 30.2578125 C4.15097656 30.26361328 4.15097656 30.26361328 2.7109375 30.26953125 C1.81632812 30.26824219 0.92171875 30.26695313 0 30.265625 C-0.82628906 30.26449707 -1.65257812 30.26336914 -2.50390625 30.26220703 C-4.4375 30.1328125 -4.4375 30.1328125 -5.4375 29.1328125 C-5.53743532 27.0722594 -5.56830906 25.0082866 -5.5703125 22.9453125 C-5.57160156 21.68976562 -5.57289062 20.43421875 -5.57421875 19.140625 C-5.57212402 18.48352539 -5.5700293 17.82642578 -5.56787109 17.14941406 C-5.56252234 15.14119915 -5.56781691 13.13320791 -5.57421875 11.125 C-5.57292969 9.86945312 -5.57164063 8.61390625 -5.5703125 7.3203125 C-5.56862061 5.57814453 -5.56862061 5.57814453 -5.56689453 3.80078125 C-5.35590069 -0.54967288 -3.92455061 0.00535723 0 0 Z " fill="#0B69F6" transform="translate(18.4375,8.8671875)"/>
<path d="M0 0 C5.75 -0.125 5.75 -0.125 8 1 C8.29883729 8.47093223 7.15925507 15.63044989 6 23 C4.35 23.66 2.7 24.32 1 25 C0 24 0 24 -0.11352539 21.68334961 C-0.10828857 20.68311768 -0.10305176 19.68288574 -0.09765625 18.65234375 C-0.09443359 17.57275391 -0.09121094 16.49316406 -0.08789062 15.38085938 C-0.07951172 14.24455078 -0.07113281 13.10824219 -0.0625 11.9375 C-0.05798828 10.79732422 -0.05347656 9.65714844 -0.04882812 8.48242188 C-0.03699747 5.65489649 -0.0205141 2.8274736 0 0 Z " fill="#EF2C2C" transform="translate(36,12)"/>
<path d="M0 0 C0 7.92 0 15.84 0 24 C-1.32 24.33 -2.64 24.66 -4 25 C-8.41565265 18.37652103 -8.30600606 8.80315459 -8 1 C-6 0 -6 0 0 0 Z " fill="#FFBD14" transform="translate(12,12)"/>
<path d="M0 0 C2.31 0 4.62 0 7 0 C6.67 1.32 6.34 2.64 6 4 C7.65 4.33 9.3 4.66 11 5 C10.26160754 6.44349674 9.50873357 7.87959051 8.75 9.3125 C8.33234375 10.11300781 7.9146875 10.91351563 7.484375 11.73828125 C5.91343217 14.13190204 4.3732963 15.43301591 2 17 C2 15.02 2 13.04 2 11 C-0.31 11 -2.62 11 -5 11 C-3.35 7.37 -1.7 3.74 0 0 Z " fill="#F2F7FE" transform="translate(21,16)"/>
</svg>
